<?xml version="1.0" standalone="no"?>
<!DOCTYPE svg PUBLIC "-//W3C//DTD SVG 20010904//EN"
 "http://www.w3.org/TR/2001/REC-SVG-20010904/DTD/svg10.dtd">
<svg version="1.0" xmlns="http://www.w3.org/2000/svg"
 width="128.000000pt" height="128.000000pt" viewBox="0 0 128.000000 128.000000"
 preserveAspectRatio="xMidYMid meet">

<g transform="translate(0.000000,128.000000) scale(0.100000,-0.100000)"
fill="#000000" stroke="none">
<path d="M837 1186 c-122 -45 -197 -150 -197 -276 l0 -45 -199 3 c-178 2 -199
1 -205 -14 -4 -9 -5 -19 -2 -21 2 -2 95 -4 207 -4 l203 0 23 -39 c19 -31 22
-48 17 -76 l-6 -35 34 6 c27 5 46 1 79 -17 61 -32 185 -32 245 0 63 32 97 65
129 124 25 45 29 64 29 128 1 81 -16 125 -70 189 -60 72 -201 109 -287 77z
m112 -120 c7 -8 11 -27 9 -43 -3 -25 -7 -28 -38 -28 -31 0 -35 3 -38 28 -4 32
13 57 38 57 10 0 23 -6 29 -14z m-105 -89 c12 -32 -2 -47 -42 -47 -28 0 -38
24 -23 56 15 34 52 29 65 -9z m216 14 c16 -32 12 -50 -15 -57 -45 -11 -71 29
-39 60 21 21 41 20 54 -3z m-135 -80 c3 -11 18 -21 35 -23 26 -4 28 -2 17 11
-7 10 -4 9 10 -3 27 -22 38 -68 23 -95 -15 -30 -45 -43 -98 -43 -38 0 -51 5
-69 27 -37 42 -23 103 28 131 33 18 47 17 54 -5z"/>
<path d="M140 446 c0 -12 3 -51 6 -85 l7 -61 63 0 c51 0 63 3 67 18 3 9 5 4 4
-13 0 -16 0 -74 1 -127 l2 -98 90 0 90 0 2 83 c2 45 2 102 2 126 0 44 0 44 12
15 7 -16 17 -48 23 -71 14 -52 52 -98 102 -123 30 -16 59 -20 137 -20 95 0
100 1 106 22 3 13 6 98 6 191 l0 167 -360 0 -360 0 0 -24z"/>
</g>
</svg>
